<?xml version="1.0" encoding="UTF-8"?><svg id="Calque_2" xmlns="http://www.w3.org/2000/svg" viewBox="0 0 459.98 94.2"><defs><style>.cls-1{fill:#fff;fill-rule:evenodd;}</style></defs><g id="_形状_2"><g id="_形状_2-2"><path class="cls-1" d="M67.93,30.58h-18.04l-1.61,16.09h16.51c10.1,0,10.85,1.92,10.85,8.48v2.78h-13.35c-13.11,0-20.44,4.58-20.44,17.43,0,10.89,6.28,18.76,18.08,18.76,4.32,0,10.88-.66,18.23-4.73l.69,4.06h16.09V55.27c0-17.7-4.86-24.69-27.01-24.69Zm7.7,47.26c-2.88,1.32-5.21,2.6-9.15,2.6-3.67,0-5.33-1.83-5.33-5.35s1.79-4.3,5.87-4.3h8.61v7.04h0ZM459.98,30.58h-20.93l-17.69,28.01V1.61l-19.3,3.21V93.33h19.3v-29.49l17.69,29.49h20.93l-19.32-32.18,19.32-30.57Zm-153.38-.86c-22.69,0-28.21,12.72-28.21,25.84v12.66c0,13.11,5.52,25.83,28.21,25.83s28.1-12.72,28.1-25.83v-12.66c0-13.12-5.42-25.84-28.1-25.84Zm8.78,40.36c0,4.47-2.29,8.05-8.84,8.05s-8.84-3.59-8.84-8.05v-16.27c0-4.45,2.27-8.03,8.84-8.03s8.84,3.58,8.84,8.03v16.27ZM43.55,30.58h-14.59l.02-8.05c0-4.19,.4-6.44,6.42-6.44h8.05V0h-12.88C15.1,0,9.65,7.8,9.65,20.92v9.65H0v16.09H9.65v46.67H28.95V46.66h12.88l1.71-16.09Zm57.83,25.74v11.27c0,15.73,8.24,26.61,28.96,26.61,4.83,0,10.54-.52,19.31-2.48v-15.68c-10.01,1.72-12.89,2.1-17.71,2.1-8.65,0-11.27-1.91-11.27-9.25v-13.89c0-7.33,2.61-9.24,11.27-9.24,4.82,0,7.69,.38,17.71,2.09v-15.68c-8.77-1.97-14.49-2.49-19.31-2.49-20.73,0-28.96,10.91-28.96,26.64ZM250.32,29.67c-4.91,0-10.31,.78-14.48,2.33V1.61l-19.3,3.21V91.71c10.5,1.61,16.09,2.45,25.6,2.45,26.35,0,30.7-11.09,30.7-26.29v-15.68c0-13.89-3.21-22.53-22.52-22.53Zm3.22,38.34c0,6.03-1.29,10.36-10.75,10.36-2.62,0-4.19,0-6.95-.27v-29.72c2.88-1.31,5.71-2.6,9.65-2.6,6.57,0,8.05,3.58,8.05,8.03v14.2h0Zm114.9-38.3c-22.69,0-28.22,12.72-28.22,25.84v12.66c0,13.11,5.52,25.83,28.22,25.83s28.1-12.72,28.1-25.83v-12.66c0-13.12-5.43-25.84-28.1-25.84Zm8.8,40.36c0,4.47-2.32,8.05-8.86,8.05s-8.83-3.59-8.83-8.05v-16.27c0-4.45,2.27-8.03,8.83-8.03s8.86,3.58,8.86,8.03v16.27ZM182.72,29.67c-21.24,0-27.36,11.27-27.36,25.03v12.88c0,15.73,8.24,26.61,28.97,26.61,9.46,0,14.48-.52,24.12-2.48v-15.68c-9.99,1.72-14.74,2.1-22.52,2.1-8.65,0-11.27-1.91-11.27-9.25v-1.3h35.4v-12.88c0-13.89-6.11-25.03-27.35-25.03Zm8.05,25.03h-16.1v-2.5c0-4.45,1.49-8.05,8.05-8.05s8.05,3.59,8.05,8.05v2.5Z"/></g></g></svg>