<?xml version="1.0" encoding="UTF-8"?><svg id="Calque_2" xmlns="http://www.w3.org/2000/svg" viewBox="0 0 288 288"><defs><style>.cls-1{fill:#fff;fill-rule:evenodd;}</style></defs><g id="Calque_1-2"><path class="cls-1" d="M144,0c79.48,0,144,64.52,144,144s-64.52,144-144,144S0,223.48,0,144,64.52,0,144,0Zm-45.02,224.93V112.47H61.59v112.46h37.39Zm134.79,0v-64.49c0-34.54-18.44-50.61-43.04-50.61-19.83,0-28.71,10.91-33.69,18.57v-15.92h-37.38c.5,10.55,0,112.46,0,112.46h37.38v-62.8c0-3.36,.24-6.72,1.23-9.12,2.7-6.71,8.85-13.67,19.18-13.67,13.52,0,18.94,10.32,18.94,25.43v60.17h37.38ZM80.54,58.25c-12.79,0-21.15,8.41-21.15,19.43s8.1,19.43,20.65,19.43h.24c13.04,0,21.15-8.64,21.15-19.43-.24-11.02-8.11-19.43-20.9-19.43Z"/></g></svg>