<?xml version="1.0" encoding="UTF-8"?><svg id="Calque_2" xmlns="http://www.w3.org/2000/svg" viewBox="0 0 283.64 85.07"><defs><style>.cls-1{fill:#fff;}</style></defs><g id="Calque_1-2"><g><path class="cls-1" d="M67.7,37.71c-13.71-8.14-36.33-8.89-49.42-4.92-2.1,.64-4.33-.55-4.96-2.65-.64-2.1,.55-4.32,2.65-4.96,15.03-4.56,40-3.68,55.79,5.69,1.89,1.12,2.51,3.56,1.39,5.45-1.12,1.89-3.57,2.51-5.45,1.39Zm-.45,12.06c-.96,1.56-3,2.05-4.56,1.09-11.43-7.03-28.86-9.06-42.39-4.96-1.75,.53-3.61-.46-4.14-2.21-.53-1.75,.46-3.6,2.21-4.14,15.45-4.69,34.65-2.42,47.78,5.65,1.56,.96,2.05,3,1.09,4.56Zm-5.2,11.58c-.76,1.25-2.4,1.65-3.64,.88-9.99-6.1-22.56-7.48-37.37-4.1-1.43,.33-2.85-.57-3.17-1.99-.33-1.43,.56-2.85,1.99-3.17,16.2-3.7,30.1-2.11,41.31,4.74,1.25,.76,1.64,2.4,.88,3.65ZM42.54,0C19.04,0,0,19.04,0,42.54s19.04,42.54,42.54,42.54,42.54-19.04,42.54-42.54S66.03,0,42.54,0Z"/><path class="cls-1" d="M115.73,39.27c-7.34-1.75-8.65-2.98-8.65-5.56,0-2.44,2.3-4.08,5.71-4.08s6.6,1.25,10.04,3.81c.1,.08,.23,.11,.36,.09,.13-.02,.24-.09,.32-.2l3.59-5.05c.15-.21,.11-.5-.09-.65-4.1-3.29-8.71-4.89-14.1-4.89-7.93,0-13.47,4.76-13.47,11.57,0,7.3,4.78,9.89,13.04,11.88,7.03,1.62,8.21,2.97,8.21,5.4,0,2.69-2.4,4.36-6.26,4.36-4.29,0-7.78-1.44-11.7-4.83-.1-.08-.23-.12-.35-.11-.13,.01-.25,.07-.33,.17l-4.02,4.79c-.17,.2-.15,.5,.05,.67,4.55,4.06,10.15,6.21,16.19,6.21,8.55,0,14.07-4.67,14.07-11.9,0-6.11-3.65-9.48-12.6-11.66Z"/><path class="cls-1" d="M153.86,47.45c0,5.16-3.18,8.76-7.73,8.76s-7.89-3.76-7.89-8.76,3.39-8.76,7.89-8.76,7.73,3.68,7.73,8.76Zm-6.2-15.43c-3.7,0-6.74,1.46-9.25,4.45v-3.36c0-.27-.22-.48-.48-.48h-6.58c-.27,0-.48,.22-.48,.48v37.39c0,.27,.21,.48,.48,.48h6.58c.27,0,.48-.22,.48-.48v-11.8c2.51,2.81,5.54,4.19,9.25,4.19,6.88,0,13.85-5.3,13.85-15.42s-6.97-15.43-13.85-15.43Z"/><path class="cls-1" d="M179.36,56.26c-4.71,0-8.27-3.79-8.27-8.81s3.43-8.7,8.16-8.7,8.32,3.79,8.32,8.81-3.45,8.7-8.21,8.7Zm0-24.24c-8.86,0-15.81,6.82-15.81,15.54s6.9,15.37,15.7,15.37,15.86-6.8,15.86-15.48-6.92-15.43-15.75-15.43Z"/><path class="cls-1" d="M214.04,32.63h-7.24v-7.4c0-.27-.21-.48-.48-.48h-6.58c-.27,0-.48,.22-.48,.48v7.4h-3.16c-.27,0-.48,.22-.48,.48v5.65c0,.27,.21,.48,.48,.48h3.16v14.62c0,5.91,2.94,8.91,8.74,8.91,2.36,0,4.32-.49,6.16-1.53,.15-.08,.24-.25,.24-.42v-5.38c0-.17-.09-.32-.23-.41-.14-.09-.32-.09-.47-.02-1.27,.64-2.49,.93-3.86,.93-2.11,0-3.05-.96-3.05-3.1v-13.59h7.24c.27,0,.48-.22,.48-.48v-5.65c0-.27-.21-.48-.48-.48Z"/><path class="cls-1" d="M239.25,32.66v-.91c0-2.67,1.03-3.87,3.32-3.87,1.37,0,2.47,.27,3.71,.68,.15,.05,.31,.02,.43-.07,.13-.09,.2-.24,.2-.39v-5.54c0-.21-.14-.4-.34-.46-1.3-.39-2.97-.79-5.47-.79-6.07,0-9.28,3.42-9.28,9.89v1.39h-3.16c-.27,0-.48,.22-.48,.48v5.68c0,.27,.22,.48,.48,.48h3.16v22.56c0,.27,.21,.48,.48,.48h6.58c.27,0,.48-.22,.48-.48v-22.56h6.14l9.41,22.55c-1.07,2.37-2.12,2.84-3.55,2.84-1.16,0-2.38-.35-3.63-1.03-.12-.06-.26-.08-.38-.04-.13,.04-.23,.14-.28,.26l-2.23,4.89c-.11,.23-.02,.5,.21,.62,2.33,1.26,4.43,1.8,7.02,1.8,4.86,0,7.54-2.26,9.91-8.35l11.41-29.48c.06-.15,.04-.32-.05-.45-.09-.13-.24-.21-.4-.21h-6.85c-.2,0-.39,.13-.46,.32l-7.01,20.03-7.68-20.04c-.07-.19-.25-.31-.45-.31h-11.23Z"/><path class="cls-1" d="M224.64,32.63h-6.58c-.27,0-.48,.22-.48,.48v28.69c0,.27,.22,.48,.48,.48h6.58c.27,0,.48-.22,.48-.48v-28.69c0-.27-.22-.48-.48-.48Z"/><path class="cls-1" d="M221.38,19.56c-2.6,0-4.72,2.11-4.72,4.71s2.11,4.72,4.72,4.72,4.72-2.11,4.72-4.72-2.11-4.71-4.72-4.71Z"/><path class="cls-1" d="M279.26,35.48h-1.2v1.54h1.2c.6,0,.96-.29,.96-.77,0-.5-.36-.77-.96-.77Zm.78,2.19l1.31,1.83h-1.1l-1.18-1.68h-1.01v1.68h-.92v-4.86h2.17c1.13,0,1.87,.58,1.87,1.55,0,.8-.46,1.28-1.13,1.48Zm-1.03-4.64c-2.37,0-4.16,1.88-4.16,4.19s1.78,4.17,4.14,4.17,4.17-1.88,4.17-4.19-1.78-4.17-4.14-4.17Zm-.02,8.82c-2.6,0-4.63-2.09-4.63-4.63s2.05-4.65,4.65-4.65,4.63,2.09,4.63,4.63-2.05,4.65-4.65,4.65Z"/></g></g></svg>