<?xml version="1.0" encoding="UTF-8"?><svg id="Calque_2" xmlns="http://www.w3.org/2000/svg" viewBox="0 0 288.01 64.3"><defs><style>.cls-1{fill:#fff;}</style></defs><g id="Calque_2-2"><g id="Calque_1-2"><g><path class="cls-1" d="M89.93,10.04c-1.06-3.95-4.17-7.06-8.12-8.12-7.16-1.92-35.89-1.92-35.89-1.92,0,0-28.72,0-35.89,1.92C6.09,2.98,2.98,6.09,1.92,10.04c-1.92,7.16-1.92,22.11-1.92,22.11,0,0,0,14.94,1.92,22.11,1.06,3.95,4.17,7.06,8.12,8.12,7.16,1.92,35.89,1.92,35.89,1.92,0,0,28.72,0,35.89-1.92,3.95-1.06,7.06-4.17,8.12-8.12,1.92-7.16,1.92-22.11,1.92-22.11,0,0,0-14.95-1.92-22.11h-.01Z"/><path d="M36.74,45.92l23.86-13.78-23.86-13.78v27.56h0Z"/><path class="cls-1" d="M143.5,52.18c.5-1.31,.76-3.46,.76-6.44v-12.55c0-2.89-.25-5-.76-6.34-.5-1.33-1.39-2-2.66-2s-2.09,.67-2.59,2c-.5,1.34-.76,3.45-.76,6.34v12.55c0,2.98,.24,5.12,.72,6.44,.48,1.31,1.36,1.97,2.63,1.97s2.16-.66,2.66-1.97h0Zm-10.18,6.31c-1.82-1.22-3.11-3.13-3.88-5.72-.77-2.58-1.15-6.02-1.15-10.31v-5.85c0-4.34,.44-7.82,1.31-10.44,.88-2.63,2.24-4.54,4.11-5.75,1.86-1.2,4.3-1.81,7.32-1.81s5.36,.61,7.16,1.84c1.79,1.23,3.11,3.14,3.94,5.75s1.25,6.08,1.25,10.41v5.85c0,4.29-.41,7.74-1.22,10.35s-2.12,4.51-3.94,5.71c-1.82,1.2-4.28,1.81-7.39,1.81s-5.7-.61-7.52-1.84h0Z"/><path class="cls-1" d="M273.98,25.61c-.46,.57-.77,1.5-.92,2.79-.15,1.29-.23,3.25-.23,5.88v2.89h6.63v-2.89c0-2.58-.09-4.54-.26-5.88-.18-1.33-.49-2.28-.95-2.82-.46-.55-1.17-.82-2.14-.82s-1.68,.29-2.14,.85h.01Zm-1.15,16.95v2.04c0,2.58,.07,4.52,.23,5.81,.15,1.29,.47,2.23,.95,2.83,.48,.59,1.23,.89,2.23,.89,1.36,0,2.29-.53,2.79-1.58,.5-1.05,.78-2.8,.82-5.25l7.82,.46c.04,.35,.07,.83,.07,1.44,0,3.72-1.02,6.5-3.05,8.34-2.04,1.84-4.92,2.76-8.64,2.76-4.47,0-7.6-1.4-9.39-4.2-1.8-2.8-2.69-7.14-2.69-13v-7.03c0-6.04,.93-10.45,2.79-13.23,1.86-2.78,5.05-4.17,9.56-4.17,3.11,0,5.5,.57,7.16,1.71,1.66,1.14,2.84,2.91,3.51,5.32,.68,2.41,1.02,5.74,1.02,9.98v6.9h-15.17v-.02Z"/><path class="cls-1" d="M111.25,41.81L100.94,4.56h9l3.61,16.88c.92,4.16,1.6,7.71,2.04,10.64h.26c.31-2.1,.98-5.63,2.04-10.58l3.74-16.95h9l-10.44,37.24v17.87h-8.93v-17.85Z"/><path class="cls-1" d="M182.65,19.41V59.67h-7.09l-.79-4.93h-.2c-1.93,3.72-4.82,5.58-8.67,5.58-2.67,0-4.64-.88-5.91-2.63s-1.9-4.49-1.9-8.21V19.41h9.06v29.56c0,1.8,.2,3.08,.59,3.84,.39,.77,1.05,1.15,1.97,1.15,.79,0,1.54-.24,2.27-.72,.72-.48,1.26-1.09,1.61-1.84V19.41h9.06Z"/><path class="cls-1" d="M229.15,19.41V59.67h-7.09l-.79-4.93h-.2c-1.93,3.72-4.82,5.58-8.67,5.58-2.67,0-4.64-.88-5.91-2.63s-1.9-4.49-1.9-8.21V19.41h9.06v29.56c0,1.8,.2,3.08,.59,3.84,.39,.77,1.05,1.15,1.97,1.15,.79,0,1.54-.24,2.27-.72,.72-.48,1.26-1.09,1.61-1.84V19.41h9.06Z"/><path class="cls-1" d="M207.28,11.86h-9V59.67h-8.87V11.86h-9V4.56h26.86v7.29h0Z"/><path class="cls-1" d="M250.84,42.27c0,2.93-.12,5.23-.36,6.9-.24,1.66-.65,2.85-1.22,3.55s-1.34,1.05-2.3,1.05c-.75,0-1.44-.17-2.07-.53-.64-.35-1.15-.88-1.54-1.58V28.8c.31-1.09,.83-1.99,1.58-2.69,.74-.7,1.55-1.05,2.43-1.05s1.63,.36,2.13,1.08,.85,1.94,1.05,3.65c.2,1.71,.3,4.14,.3,7.29v5.19h0Zm8.31-16.42c-.55-2.54-1.43-4.38-2.66-5.52-1.23-1.14-2.91-1.71-5.06-1.71-1.66,0-3.22,.47-4.66,1.41-1.45,.94-2.56,2.18-3.35,3.71h-.07V2.53h-8.74V59.67h7.49l.92-3.81h.2c.7,1.36,1.75,2.43,3.15,3.22s2.96,1.18,4.66,1.18c3.06,0,5.32-1.41,6.77-4.24,1.45-2.82,2.17-7.24,2.17-13.24v-6.37c0-4.51-.27-8.04-.82-10.58h0v.02Z"/></g></g></g></svg>